<svg width="645" height="495" viewBox="0 0 645 495" fill="none" xmlns="http://www.w3.org/2000/svg">
<path fill-rule="evenodd" clip-rule="evenodd" d="M352.763 465.954C221.322 453.421 112.529 363.113 64.8591 248C17.1889 132.887 196.668 34.8284 325.939 29.2104C455.21 23.5924 555 131.297 555 253.974C555 376.651 484.204 478.487 352.763 465.954Z" fill="#FFE5D2"/>
<path fill-rule="evenodd" clip-rule="evenodd" d="M514.948 344.003C515.052 343.944 515.696 344.779 516.649 346.424C517.607 348.062 518.798 350.552 519.905 353.764C522.174 360.166 523.599 369.616 522.754 379.923C521.917 390.228 519.489 399.274 517.615 405.713C515.699 412.155 514.288 416.065 514.045 415.999C513.777 415.926 514.729 411.881 516.301 405.376C517.834 398.872 520.02 389.874 520.839 379.78C521.662 369.689 520.491 360.504 518.608 354.154C516.779 347.773 514.646 344.157 514.948 344.003Z" fill="white"/>
<path fill-rule="evenodd" clip-rule="evenodd" d="M521.018 292.001C521.144 291.949 521.967 293.346 523.339 295.922C524.709 298.497 526.635 302.251 528.914 306.934C533.433 316.301 539.517 329.413 543.929 344.636C546.098 352.251 547.576 359.654 548.325 366.452C549.079 373.249 549.156 379.425 548.779 384.579C548.413 389.735 547.712 393.873 547.037 396.687C546.369 399.506 545.84 401.024 545.721 401C545.347 400.933 546.999 394.727 547.349 384.517C547.786 374.328 546.344 360.172 541.972 345.12C537.61 330.063 531.775 316.944 527.599 307.461C525.496 302.716 523.795 298.875 522.618 296.22C521.468 293.554 520.889 292.055 521.018 292.001Z" fill="white"/>
<path fill-rule="evenodd" clip-rule="evenodd" d="M271.984 353.01C272.211 353.244 269.988 355.279 267.102 359.058C266.386 360.007 265.608 361.045 264.881 362.231C264.084 363.374 263.392 364.684 262.622 366.038C261.189 368.796 259.829 371.931 258.781 375.344C257.777 378.77 257.192 382.118 256.877 385.186C256.781 386.725 256.642 388.189 256.682 389.561C256.642 390.938 256.724 392.215 256.804 393.385C257.154 398.057 257.91 400.915 257.588 400.999C257.392 401.063 256.148 398.302 255.426 393.521C255.253 392.326 255.088 391.014 255.056 389.594C254.945 388.175 255.025 386.657 255.075 385.059C255.3 381.873 255.854 378.379 256.897 374.824C257.984 371.279 259.45 368.039 261.027 365.225C261.868 363.845 262.64 362.519 263.522 361.375C264.334 360.188 265.203 359.161 266.011 358.237C269.271 354.557 271.856 352.856 271.984 353.01Z" fill="white"/>
<path fill-rule="evenodd" clip-rule="evenodd" d="M277.985 369.037C278.158 369.285 276.849 370.176 275.138 371.882C274.272 372.724 273.359 373.816 272.461 375.081C271.601 376.367 270.778 377.843 270.13 379.471C269.512 381.106 269.139 382.721 268.926 384.207C268.756 385.695 268.718 387.054 268.818 388.194C268.984 390.475 269.399 391.897 269.089 391.996C268.868 392.079 267.935 390.778 267.365 388.368C267.068 387.166 266.946 385.694 267.022 384.064C267.143 382.439 267.493 380.656 268.171 378.869C268.875 377.09 269.835 375.496 270.865 374.149C271.932 372.822 273.048 371.731 274.113 370.948C276.231 369.361 277.867 368.848 277.985 369.037Z" fill="white"/>
<path fill-rule="evenodd" clip-rule="evenodd" d="M204.016 216.006C204.118 215.921 205 216.746 206.515 218.32C207.284 219.098 208.193 220.079 209.155 221.288C210.126 222.487 211.295 223.817 212.392 225.417C212.957 226.206 213.551 227.032 214.169 227.894C214.78 228.761 215.334 229.71 215.952 230.669C217.215 232.572 218.347 234.721 219.579 236.963C221.904 241.51 224.128 246.671 225.899 252.265C227.613 257.876 228.701 263.357 229.352 268.373C229.6 270.892 229.878 273.28 229.907 275.529C229.937 276.652 230.015 277.735 229.998 278.779C229.973 279.821 229.947 280.82 229.924 281.775C229.919 283.686 229.699 285.404 229.57 286.914C229.453 288.425 229.253 289.716 229.052 290.766C228.681 292.869 228.413 294.018 228.278 294C227.93 293.956 228.585 289.294 228.53 281.761C228.512 280.819 228.495 279.835 228.476 278.807C228.453 277.78 228.338 276.714 228.274 275.611C228.176 273.4 227.84 271.056 227.549 268.587C226.809 263.669 225.69 258.304 224.007 252.797C222.268 247.306 220.139 242.223 217.944 237.713C216.777 235.49 215.716 233.349 214.535 231.443C213.956 230.483 213.442 229.53 212.875 228.656C212.303 227.785 211.754 226.948 211.23 226.149C206.966 219.796 203.747 216.223 204.016 216.006Z" fill="white"/>
<path fill-rule="evenodd" clip-rule="evenodd" d="M226.021 225.007C226.186 224.866 228.414 226.865 231.248 230.716C232.674 232.633 234.177 235.05 235.639 237.836C237.06 240.642 238.415 243.827 239.497 247.28C240.546 250.742 241.212 254.124 241.611 257.219C241.961 260.321 242.07 263.131 241.958 265.484C241.762 270.193 241.023 273.032 240.806 273C240.494 272.963 240.744 270.089 240.586 265.483C240.522 263.181 240.275 260.448 239.839 257.442C239.354 254.442 238.654 251.171 237.637 247.808C236.585 244.454 235.319 241.343 234.026 238.573C232.688 235.82 231.347 233.398 230.096 231.431C227.618 227.483 225.781 225.201 226.021 225.007Z" fill="white"/>
<path fill-rule="evenodd" clip-rule="evenodd" d="M146.925 378.341L145.194 375L97 409.805L118.026 442L166 403.768L146.925 378.341Z" fill="#FF7B5B"/>
<path fill-rule="evenodd" clip-rule="evenodd" d="M99 410L117.798 440L119 439.505L102.26 411.455L99 410Z" fill="#D7D4D4"/>
<path fill-rule="evenodd" clip-rule="evenodd" d="M146.341 377L99 409.537C99 409.537 99.1985 410.236 100.373 410.667C101.55 411.097 102.23 410.988 102.23 410.988L152 379.377C152 379.377 149.131 378.758 148.09 378.037C147.048 377.314 146.341 377 146.341 377Z" fill="#F5F3F3"/>
<path fill-rule="evenodd" clip-rule="evenodd" d="M153.556 379L102 411.208L118.745 440.89L121.442 445L173 409.311C173 409.311 167.57 401.73 164.309 397.153C161.049 392.576 154.648 381.782 154.3 381.09C153.951 380.399 153.556 379 153.556 379Z" fill="#FF7B5B"/>
<path fill-rule="evenodd" clip-rule="evenodd" d="M579.034 154.793L580.488 152L621 181.091L603.326 208L563 176.044L579.034 154.793Z" fill="#775298"/>
<path fill-rule="evenodd" clip-rule="evenodd" d="M620 182L604.023 207L603 206.589L617.23 183.213L620 182Z" fill="#D7D4D4"/>
<path fill-rule="evenodd" clip-rule="evenodd" d="M579.699 155L619 182.753C619 182.753 618.834 183.348 617.86 183.716C616.883 184.083 616.318 183.989 616.318 183.989L575 157.028C575 157.028 577.382 156.501 578.246 155.885C579.11 155.268 579.699 155 579.699 155Z" fill="#F5F3F3"/>
<path fill-rule="evenodd" clip-rule="evenodd" d="M574.432 156L618 183.328L603.851 208.513L601.571 212L558 181.717C558 181.717 562.59 175.284 565.345 171.401C568.102 167.518 573.509 158.359 573.803 157.772C574.098 157.187 574.432 156 574.432 156Z" fill="#775298"/>
<path fill-rule="evenodd" clip-rule="evenodd" d="M89.9877 103C89.9877 103 86.8825 104.974 88.4344 108.266C89.9877 111.557 96.7951 121.322 105.991 120.992C106.368 120.98 94.4063 103 94.4063 103H89.9877Z" fill="#FF7B5B"/>
<path fill-rule="evenodd" clip-rule="evenodd" d="M76 284.112C76 284.112 64.6161 274.482 60.9715 276.207C56.5187 278.315 31.0324 301.963 32.0284 313.103C32.4376 317.666 38.0465 313.757 48.0412 303.939C58.0389 294.122 70.627 298.329 70.627 298.329L76 284.112Z" fill="#775298"/>
<path fill-rule="evenodd" clip-rule="evenodd" d="M103 300.788L89.378 293C89.378 293 54.0687 324.548 59.5851 328.755C63.7692 331.944 66.2286 329.083 76.137 319.289C86.0439 309.498 98.5964 315.128 98.5964 315.128L103 300.788Z" fill="#775298"/>
<path fill-rule="evenodd" clip-rule="evenodd" d="M186.432 198L189 232L132 218.154L186.432 198Z" fill="#F3A683"/>
<path fill-rule="evenodd" clip-rule="evenodd" d="M132.39 219C132.39 219 182.572 221.955 189.254 219.872C189.254 219.872 199.06 309.893 181.611 319.605C164.16 329.32 125 315.096 125 315.096L135.573 295.669L158.37 294.281V259.591L156.735 259.937L132.39 219Z" fill="#112129"/>
<path fill-rule="evenodd" clip-rule="evenodd" d="M70.2703 280.148C70.2703 280.148 57.7577 284.985 61.8065 296.732C61.8065 296.732 104.519 328.168 125.303 320.913C136.947 316.849 149.456 285.84 158.206 259.347L189 219.868C189 219.868 174.477 220.55 169.632 220.533C160.372 220.5 132.629 219 132.629 219C132.629 219 118.138 290.168 112.975 291.894C107.811 293.62 70.2703 280.148 70.2703 280.148Z" fill="#22343D"/>
<path fill-rule="evenodd" clip-rule="evenodd" d="M144 129.376C144 129.376 173.989 103.072 179.171 96.1485C184.353 89.2267 195.463 66.0383 209.157 56.3477L202.494 43.1956C202.494 43.1956 206.568 41.1198 209.157 46.6558C209.157 46.6558 218.782 28.6605 221.004 29.0049C223.227 29.3506 216.563 42.8499 216.563 42.8499C216.563 42.8499 225.82 30.3892 228.411 30.7364C231 31.0821 221.746 44.7433 221.746 44.7433C221.746 44.7433 232.111 33.5051 233.593 34.8894C235.074 36.2738 225.448 44.7433 225.448 44.7433C225.448 44.7433 235.813 39.18 236.924 41.0136C238.035 42.8499 226.559 47.6945 226.559 47.6945C226.559 47.6945 225.448 55.6549 218.415 59.1151C218.415 59.1151 204.488 94.2918 191.9 105.712L151.464 145L144 129.376Z" fill="#FFC6B2"/>
<path fill-rule="evenodd" clip-rule="evenodd" d="M108.59 143C108.59 143 80.304 170.751 72.8856 175.524C65.4657 180.296 40.6725 190.452 30.2276 203.149L16.2851 196.805C16.2851 196.805 14.0369 200.587 19.9087 203.057C19.9087 203.057 0.655373 211.875 1.0047 213.954C1.35112 216.031 15.7864 209.936 15.7864 209.936C15.7864 209.936 2.43243 218.462 2.7774 220.883C3.12238 223.304 17.7534 214.791 17.7534 214.791C17.7534 214.791 5.69085 224.363 7.15192 225.758C8.61009 227.154 17.72 218.248 17.72 218.248C17.72 218.248 11.6989 227.873 13.6441 228.927C15.5864 229.98 20.8524 219.312 20.8524 219.312C20.8524 219.312 29.3376 218.352 33.0903 211.816C33.0903 211.816 68.5691 198.576 80.849 186.931L125 157.591L108.59 143Z" fill="#FFC6B2"/>
<path fill-rule="evenodd" clip-rule="evenodd" d="M119.415 131.969L105 145.133L108.656 159.972C108.656 159.972 122.857 191.778 125.004 199.537C128.342 211.603 122.944 230 122.944 230C122.944 230 147.02 228.135 168.927 227.443C190.833 226.749 198 220.166 198 220.166C198 220.166 179.006 161.154 165.892 144.657C152.777 128.164 148.007 123 148.007 123L128.698 126.937L119.415 131.969Z" fill="white"/>
<path fill-rule="evenodd" clip-rule="evenodd" d="M160.948 143L175.907 134.005C175.907 134.005 178.192 124.368 160.153 113L139 125.475L160.948 143Z" fill="white"/>
<path fill-rule="evenodd" clip-rule="evenodd" d="M107.75 144.277C99.5851 145.342 84.664 164.584 83 164.548C83 164.548 93.5011 180.483 101.82 181C101.82 181 138.427 140.276 107.75 144.277Z" fill="white"/>
<path fill-rule="evenodd" clip-rule="evenodd" d="M137 132.031C137 132.031 124.989 123.624 125.405 120.272C125.511 119.428 127.176 118.057 127.608 116.841C129.937 110.295 118.709 93.4289 111.81 89.8739C106.383 87.0782 108.762 86.8311 97.3398 93.19C85.9181 99.5489 92.4255 110.545 97.5259 116.232C102.348 121.608 107.87 123.911 112.839 124.299L119.903 139L137 132.031Z" fill="#FFC6B2"/>
<path fill-rule="evenodd" clip-rule="evenodd" d="M115.597 143.011C113.363 137.804 117.593 131.245 125.047 128.357C132.504 125.467 140.355 127.346 142.594 132.55C144.826 137.756 137.325 145.582 133.138 147.205C128.95 148.828 117.83 148.216 115.597 143.011Z" fill="#FFC6B2"/>
<path fill-rule="evenodd" clip-rule="evenodd" d="M97.3579 116.004C97.3579 116.004 93.4515 115.809 93.0179 118.157C92.5829 120.506 100.178 120.506 103 118.744L97.3579 116.004Z" fill="#FFC6B2"/>
<path fill-rule="evenodd" clip-rule="evenodd" d="M99.9006 118C99.1625 113.626 94.177 110.373 94.4255 106.111C96.8152 106.129 98.3499 103.362 97.2625 100.996C96.8342 100.067 96.1093 99.2717 95.6459 98.3548C95.1841 97.4392 95.0613 96.2394 95.7702 95.7215C96.1063 95.4769 96.5609 95.4345 96.9964 95.3935C100.539 95.0533 106.609 96.0467 109.87 94.9166C112.975 93.8412 116.301 91.749 115.978 88.1933C115.696 85.0968 112.771 82.5865 110.085 80.6897C108.546 79.602 104.148 76.7582 102.489 77.0165C99.9562 77.4101 99.3423 80.5695 99.1596 83.2137C97.3882 81.6367 94.7748 81.8895 93.2343 83.1727C91.6938 84.4559 90.9644 86.4947 90.2936 88.4625C89.6212 90.4317 88.9094 92.476 87.3894 93.7838C85.9731 95.0027 83.7325 95.9251 84.0262 97.9981C84.3756 100.469 87.8278 101.348 89.4239 103.455C89.0307 102.938 88.6975 106.237 88.924 106.796C89.6052 108.481 91.305 109.596 92.5342 110.884C95.1519 113.631 96.4323 116.397 99.9006 118Z" fill="#FF7B5B"/>
<path fill-rule="evenodd" clip-rule="evenodd" d="M120.8 108L112 111.941C112 111.941 122.57 118.586 120.8 108Z" fill="white"/>
<path fill-rule="evenodd" clip-rule="evenodd" d="M108.856 109.766C109.317 110.636 108.635 111.893 107.333 112.574C106.032 113.255 104.604 113.103 104.143 112.234C103.684 111.364 104.365 110.108 105.666 109.426C106.969 108.745 108.395 108.897 108.856 109.766Z" fill="#FFB2A0"/>
<path fill-rule="evenodd" clip-rule="evenodd" d="M121.856 101.766C122.317 102.636 121.635 103.893 120.333 104.574C119.032 105.255 117.604 105.103 117.143 104.234C116.684 103.364 117.365 102.107 118.666 101.426C119.969 100.745 121.395 100.897 121.856 101.766Z" fill="#FFB2A0"/>
<path fill-rule="evenodd" clip-rule="evenodd" d="M114.791 107.985C114.751 107.936 114.914 107.731 115.293 107.47C115.655 107.203 116.284 106.916 116.751 106.435C117.214 105.97 117.38 104.999 116.672 104.862C115.936 104.624 115.099 105.43 114.141 106.196C113.903 106.384 113.669 106.571 113.436 106.754C113.219 106.945 112.762 107.224 112.288 107.167C111.384 107.028 110.999 106.452 110.652 106.067C109.958 105.216 109.529 104.325 109.292 103.555C108.822 101.997 109.033 100.992 109.146 101C109.304 100.993 109.356 101.96 109.953 103.33C110.254 104.01 110.704 104.784 111.359 105.514C111.679 105.884 112.081 106.23 112.367 106.241C112.487 106.246 112.581 106.207 112.807 106.027C113.037 105.843 113.268 105.656 113.503 105.469C113.986 105.096 114.404 104.719 114.956 104.368C115.493 104.023 116.258 103.805 116.944 104.027C117.675 104.211 118.105 105.025 117.978 105.592C117.895 106.169 117.594 106.594 117.253 106.905C116.531 107.481 115.886 107.62 115.48 107.794C115.063 107.945 114.835 108.039 114.791 107.985Z" fill="#FF7B5B"/>
<path fill-rule="evenodd" clip-rule="evenodd" d="M113 123.851C113 123.851 118.834 123.883 122 122C122 122 119.322 125.177 113.964 126L113 123.851Z" fill="#FFA192"/>
<path fill-rule="evenodd" clip-rule="evenodd" d="M114.997 100.444C114.952 100.743 114.263 100.835 113.535 101.229C112.797 101.595 112.264 102.137 112.059 101.968C111.848 101.832 112.197 100.754 113.194 100.239C114.189 99.722 115.062 100.163 114.997 100.444Z" fill="#22343D"/>
<path fill-rule="evenodd" clip-rule="evenodd" d="M104.063 106.973C103.849 106.819 104.184 105.931 104.998 105.042C105.822 104.135 106.875 103.832 106.986 104.086C107.103 104.333 106.462 104.908 105.74 105.706C105.007 106.501 104.294 107.141 104.063 106.973Z" fill="#22343D"/>
<path fill-rule="evenodd" clip-rule="evenodd" d="M99.3506 105.88C98.9225 105.566 98.5888 104.222 100.227 102.412C101.881 100.561 103.729 100.887 103.95 101.401C104.188 101.906 103.573 102.624 102.122 104.252C100.649 105.874 99.8142 106.224 99.3506 105.88Z" fill="#FF7B5B"/>
<path fill-rule="evenodd" clip-rule="evenodd" d="M109.074 98.6921C108.829 98.2953 109.099 97.1403 111.301 96.3356C113.533 95.504 115.021 96.4214 115 96.8978C114.996 97.3718 114.155 97.7037 112.194 98.4361C110.218 99.155 109.338 99.1244 109.074 98.6921Z" fill="#FF7B5B"/>
<path fill-rule="evenodd" clip-rule="evenodd" d="M591.994 111.019C592.143 111.155 589.692 113.688 584.605 116.448C579.582 119.205 571.678 121.937 562.587 121.999C553.495 122.061 545.548 119.435 540.48 116.747C535.352 114.058 532.86 111.556 533.006 111.418C533.218 111.172 536.005 113.282 541.141 115.592C546.227 117.911 553.893 120.213 562.571 120.155C571.252 120.094 578.878 117.689 583.928 115.302C589.024 112.922 591.779 110.775 591.994 111.019Z" fill="#775298"/>
<path fill-rule="evenodd" clip-rule="evenodd" d="M536.997 107.952C536.859 108.241 534.164 107.173 529.624 106.206C527.362 105.696 524.616 105.302 521.558 104.939C518.489 104.615 515.097 104.357 511.514 104.114C507.93 103.874 504.5 103.598 501.384 103.23C498.269 102.835 495.469 102.365 493.163 101.769C488.533 100.615 485.911 99.2486 486.002 99.056C486.123 98.765 488.88 99.6643 493.465 100.453C495.752 100.87 498.512 101.193 501.586 101.485C504.667 101.754 508.069 101.974 511.658 102.215C515.249 102.459 518.685 102.774 521.798 103.2C524.909 103.667 527.7 104.211 529.983 104.903C534.567 106.24 537.1 107.77 536.997 107.952Z" fill="#775298"/>
<mask id="mask0_36111_512" style="mask-type:luminance" maskUnits="userSpaceOnUse" x="464" y="35" width="181" height="83">
<path fill-rule="evenodd" clip-rule="evenodd" d="M464 35H645V118H464V35Z" fill="white"/>
</mask>
<g mask="url(#mask0_36111_512)">
<path fill-rule="evenodd" clip-rule="evenodd" d="M482.206 51.8116C490.821 50.1009 499.746 51.5738 508.432 52.9285C517.119 54.2833 526.137 55.5048 534.63 53.3226C549.963 49.3835 561.604 34.8838 577.505 35.0007C584.052 35.0483 590.223 37.6653 596.602 39.0499C604.523 40.7701 612.775 40.5853 620.799 41.8123C628.824 43.0393 637.113 46.0599 641.649 52.3769C647.029 59.8733 645.554 70.4474 639.908 77.7713C634.262 85.0965 625.221 89.556 615.957 92.0834C609.495 93.8457 602.611 94.8648 597.019 98.3718C591.363 101.92 587.67 107.629 582.4 111.663C569.176 121.785 548.596 118.884 534.936 109.283C531.504 106.871 528.324 104.072 524.468 102.307C508.785 95.1216 486.229 104.633 472.722 91.5602C459.005 78.2835 460.96 56.0293 482.206 51.8116Z" fill="#775298"/>
</g>
<path fill-rule="evenodd" clip-rule="evenodd" d="M478 309.509C478 309.509 492.259 338.745 493.927 333.331C495.591 327.916 495.041 314.913 494.147 313.057C493.25 311.201 487.421 303 487.421 303L478 309.509Z" fill="#FFB2A0"/>
<path fill-rule="evenodd" clip-rule="evenodd" d="M582 75.8514C583.316 77.4217 582.437 75.735 583.927 78C590.122 77.7992 594.28 72.9171 594.28 72.9171C594.28 72.9171 604.113 73.1594 603.999 71.5235C603.887 69.885 594.573 70.4968 594.573 70.4968C594.573 70.4968 604.426 67.6146 603.885 66.1756C603.348 64.7378 591.973 69.3241 591.973 69.3241C591.973 69.3241 603.451 62.6883 601.755 61.6241C600.061 60.5625 589.017 66.3549 589.017 66.3549C589.017 66.3549 598.615 59.0124 597.176 58.0659C595.74 57.1195 582.427 66.6762 582.427 66.6762C582.621 61.9748 579 62.1395 579 62.1395L579.149 73.6185C579.149 73.6185 581.393 75.1286 582 75.8514Z" fill="#FFC6B2"/>
<path fill-rule="evenodd" clip-rule="evenodd" d="M434.761 23.5301C432.618 23.9022 434.28 23.2007 431.498 24C426.928 19.8989 427.535 13.4538 427.535 13.4538C427.535 13.4538 419.871 7.38211 421.142 6.19561C422.42 5.00636 429.069 11.406 429.069 11.406C429.069 11.406 423.659 2.91448 425.114 2.15104C426.568 1.3876 431.905 12.1584 431.905 12.1584C431.905 12.1584 427.978 -0.25641 430.043 0.00404144C432.104 0.264493 436.312 11.7519 436.312 11.7519C436.312 11.7519 434.332 -0.008361 436.111 0.177676C437.893 0.362334 441.098 16.1947 441.098 16.1947C444.363 12.452 447 14.8842 447 14.8842L438.723 23.4515C438.723 23.4515 435.747 23.3606 434.761 23.5301Z" fill="#FFC6B2"/>
<path fill-rule="evenodd" clip-rule="evenodd" d="M485.982 72.03C483.207 71.602 476.496 75.7884 473.138 82.6116C471.259 86.4306 469.965 90.3101 472.122 96.5209C473.138 99.4426 475.264 99.8087 475.739 101.117C476.339 102.774 474.352 107.997 474.352 107.997L482.274 111C482.789 107.412 483.372 103.802 487.268 102.245C488.725 101.661 490.285 101.292 491.661 100.552C495.372 98.555 497.354 94.1869 498.879 90.6101C500.017 87.9389 492.941 73.1007 485.982 72.03Z" fill="#FFC6B2"/>
<path fill-rule="evenodd" clip-rule="evenodd" d="M477.335 172.94L464.104 168C464.104 168 424.837 235.76 425.001 254.561C425.163 273.36 478.932 311 478.932 311L488 303.707C488 303.707 471.399 276.771 462.525 267.274C453.65 257.775 477.335 172.94 477.335 172.94Z" fill="#FFB2A0"/>
<path fill-rule="evenodd" clip-rule="evenodd" d="M542.149 249C542.149 249 571.033 236.489 565.229 235.384C559.425 234.284 545.851 235.8 543.982 236.762C542.11 237.726 534 243.693 534 243.693L542.149 249Z" fill="#FFC6B2"/>
<path fill-rule="evenodd" clip-rule="evenodd" d="M490.123 172L470.113 178.785C470.113 178.785 450.098 260.835 457.739 273.716C465.378 286.603 486.837 278.076 517.4 262.53L543 249.506L534.455 244.205C534.455 244.205 504.666 249.645 496.3 255.07C496.3 255.07 500.666 243.541 506.487 227.267C512.307 210.992 516.322 194.378 490.123 172Z" fill="#FFC6B2"/>
<path fill-rule="evenodd" clip-rule="evenodd" d="M465 115.537C465 110.002 466.912 106 472.851 106C478.79 106 487 107.94 487 113.475C487 119.012 482.32 128 476.378 128C470.439 128 465 121.073 465 115.537Z" fill="#FFC6B2"/>
<path fill-rule="evenodd" clip-rule="evenodd" d="M470 106.07C470 106.07 451.819 87.5872 448.182 69.4811C444.544 51.3778 438.365 22 438.365 22L431.455 23.869C431.455 23.869 428.181 64.0177 431.455 70.1653C434.727 76.3142 450.718 117.25 455.587 128L470 106.07Z" fill="#FFC6B2"/>
<path fill-rule="evenodd" clip-rule="evenodd" d="M489 119.777C489 119.777 490.397 114.018 513.368 106.192C536.339 98.3661 579.676 73 579.676 73L584 77.6582C584 77.6582 560.453 103.271 546.754 107.763C533.054 112.257 503.958 129.971 500.964 131.388C496.437 133.533 496.492 136.231 489 119.777Z" fill="#FFC6B2"/>
<path fill-rule="evenodd" clip-rule="evenodd" d="M469.471 106C469.471 106 451 111.585 451 137.805C451 137.805 451.012 173.715 455.365 180.248C455.365 180.248 462.442 181.94 471.265 180.248C480.516 178.474 489.471 172.106 489.471 172.106L504 131.413L502.262 112.347L482.507 108.788C482.507 108.788 488.174 133.495 467.67 122.873C463.686 120.809 473.533 106.792 473.533 106.792L469.471 106Z" fill="#22343D"/>
<path fill-rule="evenodd" clip-rule="evenodd" d="M454.165 127L445 109.456C445 109.456 446.314 98.8135 463.139 95C463.139 95 464.841 100.365 466.706 102.414C468.57 104.462 474 106.643 474 106.643L454.165 127Z" fill="#22343D"/>
<path fill-rule="evenodd" clip-rule="evenodd" d="M488.016 134L516.947 128.431C516.947 128.431 521.977 118.643 510.05 107C510.05 107 487.483 108.28 484.562 108.508C481.687 108.732 483.661 110.812 483.661 110.812L488.016 134Z" fill="#22343D"/>
<path fill-rule="evenodd" clip-rule="evenodd" d="M455.744 171.723C455.744 171.723 428.501 219.032 424 227.485C424 227.485 504.373 262.163 537 220.422C537 220.422 518.441 183.527 489.749 169.481L477.372 166L456.228 171.496" fill="#22343D"/>
<path fill-rule="evenodd" clip-rule="evenodd" d="M497.858 89.7101C497.858 89.7101 500.879 86.6114 502.737 88.7563C504.595 90.9013 496 94 496 94L497.858 89.7101Z" fill="#FFC6B2"/>
<path fill-rule="evenodd" clip-rule="evenodd" d="M554.999 50.4695C555.03 50.5702 553.825 51.0574 551.525 51.5676C549.231 52.0834 545.827 52.5515 541.599 52.6317C537.373 52.7107 532.348 52.3596 526.848 51.6629C521.343 50.9812 515.364 49.9797 509.073 49.3388C502.792 48.7115 496.753 48.5972 491.404 49.4041C486.054 50.1974 481.424 51.8343 477.884 53.7462C474.344 55.673 471.881 57.8107 470.369 59.4286C468.849 61.0478 468.164 62.082 468.01 61.9949C467.925 61.9541 468.383 60.7893 469.761 58.9741C471.13 57.1643 473.546 54.7762 477.15 52.6168C480.751 50.4709 485.537 48.6271 491.098 47.7045C496.667 46.7684 502.895 46.8405 509.285 47.48C515.681 48.1318 521.668 49.1905 527.108 49.9579C532.547 50.7403 537.463 51.2193 541.603 51.3091C549.901 51.5255 554.924 50.1498 554.999 50.4695Z" fill="#775298"/>
<path fill-rule="evenodd" clip-rule="evenodd" d="M481.985 87.9129C481.976 88.0217 481.072 88.0982 479.691 87.6979C479.349 87.5929 478.946 87.4556 478.571 87.155C478.385 87.0048 478.213 86.8053 478.108 86.5656C477.957 86.2301 477.968 85.8492 478.118 85.559C478.163 85.5007 478.16 85.3621 478.247 85.3595L478.516 85.3517C478.688 85.331 478.891 85.3802 479.09 85.4126C479.455 85.4735 479.572 85.4644 479.832 85.48C480.287 85.489 480.759 85.4476 481.23 85.3569C483.159 85.0019 484.449 83.7764 485.028 82.7685C485.634 81.7541 485.688 80.9911 485.849 81.0002C485.964 80.9872 486.189 81.7982 485.688 83.0224C485.433 83.6222 484.989 84.3101 484.273 84.9138C483.561 85.5162 482.574 86.0111 481.454 86.2249C480.895 86.3337 480.333 86.3752 479.791 86.3505C479.556 86.3402 479.185 86.2987 479.076 86.278C478.977 86.2637 478.989 86.2443 478.97 86.2547C478.958 86.265 478.952 86.2819 478.953 86.3065C478.993 86.4231 479.066 86.5345 479.168 86.6343C479.375 86.8376 479.674 86.9892 479.966 87.1162C481.161 87.6279 482.008 87.7795 481.985 87.9129Z" fill="#FF7B5B"/>
<path fill-rule="evenodd" clip-rule="evenodd" d="M475 89L486 93.1046C486 93.1046 476.333 99.418 475 89Z" fill="white"/>
<path fill-rule="evenodd" clip-rule="evenodd" d="M490.885 90.4252C490.517 91.0778 489.375 91.1914 488.334 90.6801C487.293 90.1702 486.747 89.2269 487.114 88.5757C487.483 87.923 488.626 87.8081 489.667 88.3194C490.708 88.8306 491.253 89.7726 490.885 90.4252Z" fill="#FFB2A0"/>
<path fill-rule="evenodd" clip-rule="evenodd" d="M478.92 84.312C478.611 85.0083 477.502 85.2096 476.442 84.7608C475.382 84.312 474.771 83.3844 475.08 82.688C475.388 81.9917 476.498 81.7904 477.558 82.2392C478.618 82.688 479.229 83.6156 478.92 84.312Z" fill="#FFB2A0"/>
<path fill-rule="evenodd" clip-rule="evenodd" d="M475 100C475 100 478.915 102.637 483 101.788C483 101.788 481.592 103.486 476.17 102.863C476.17 102.863 476.62 100.991 475 100Z" fill="#FFA192"/>
<path fill-rule="evenodd" clip-rule="evenodd" d="M490 85C490 85.5517 489.552 86 489 86C488.448 86 488 85.5517 488 85C488 84.4483 488.448 84 489 84C489.552 84 490 84.4483 490 85Z" fill="#22343D"/>
<path fill-rule="evenodd" clip-rule="evenodd" d="M483 82C483 82.5517 482.551 83 481.999 83C481.447 83 481 82.5517 481 82C481 81.4483 481.447 81 481.999 81C482.551 81 483 81.4483 483 82Z" fill="#22343D"/>
<path fill-rule="evenodd" clip-rule="evenodd" d="M491.902 81.9885C491.652 82.0849 491.17 81.5536 490.439 81.1237C489.724 80.6748 488.999 80.4732 489 80.2272C488.977 79.9913 489.989 79.7998 490.972 80.3996C491.956 80.9956 492.151 81.9175 491.902 81.9885Z" fill="#775298"/>
<path fill-rule="evenodd" clip-rule="evenodd" d="M480 78.5302C479.983 78.3492 480.86 78.1212 482.034 78.1432C483.229 78.1612 484.111 78.5732 483.989 78.7452C483.876 78.9192 483.044 78.8442 481.996 78.8302C480.942 78.8082 480.017 78.7272 480 78.5302Z" fill="#775298"/>
<path fill-rule="evenodd" clip-rule="evenodd" d="M484 322.211C484 322.211 488.282 337.152 492.704 335.929C497.125 334.707 493.801 313.854 493.801 313.854L489.389 307C489.389 307 493.534 341.905 484 322.211Z" fill="#22343D"/>
<path fill-rule="evenodd" clip-rule="evenodd" d="M540 239.789C540 239.789 543.191 236.639 547.059 236.115C550.929 235.59 564.757 234.103 566.788 235.765C568.82 237.427 555.58 243 555.58 243C555.58 243 560.193 240.341 558.278 239.352C554.892 237.602 540 239.789 540 239.789Z" fill="#22343D"/>
<path fill-rule="evenodd" clip-rule="evenodd" d="M534 244.065L538.529 252L541 250.816L534.96 243L534 244.065Z" fill="#22343D"/>
<path fill-rule="evenodd" clip-rule="evenodd" d="M485.566 300L475 309.419L478.131 312L487 302.452L485.566 300Z" fill="#22343D"/>
<path fill-rule="evenodd" clip-rule="evenodd" d="M261.123 209.46C258.08 202.387 256.911 194.512 252.37 188.182C245.836 179.074 233.285 174.555 227.983 164.768C225.73 160.612 225.024 155.857 225 151.197C224.957 141.976 227.904 132.173 235.508 126.314C244.245 119.58 257.355 119.674 267.588 124.197C277.818 128.721 285.635 136.932 292.282 145.508C298.929 154.084 304.748 163.287 312.488 171.015C318.228 176.746 325.035 181.688 329.358 188.42C341.209 206.877 329.015 230.229 308.093 236.891C289.709 242.742 267.483 224.249 261.123 209.46Z" fill="#22343D"/>
<path fill-rule="evenodd" clip-rule="evenodd" d="M235.502 340.809C237.334 342.235 235.335 341.247 238 342.891C237.405 349.195 231.247 353.166 231.247 353.166C231.247 353.166 230.987 363.203 229.009 362.997C227.026 362.794 228.296 353.332 228.296 353.332C228.296 353.332 224.241 363.218 222.526 362.589C220.812 361.962 227.019 350.618 227.019 350.618C227.019 350.618 218.319 361.955 217.124 360.168C215.93 358.382 223.585 347.442 223.585 347.442C223.585 347.442 214.133 356.824 213.065 355.305C211.999 353.79 224.345 340.742 224.345 340.742C218.631 340.683 219.035 337 219.035 337L232.953 337.782C232.953 337.782 234.659 340.15 235.502 340.809Z" fill="#FFC6B2"/>
<path fill-rule="evenodd" clip-rule="evenodd" d="M367.657 153.511C370.048 153.898 368.193 153.167 371.295 154C376.39 149.728 375.714 143.015 375.714 143.015C375.714 143.015 384.258 136.69 382.841 135.455C381.416 134.216 374.004 140.88 374.004 140.88C374.004 140.88 380.034 132.036 378.412 131.24C376.793 130.446 370.843 141.665 370.843 141.665C370.843 141.665 375.221 128.733 372.918 129.004C370.622 129.276 365.93 141.242 365.93 141.242C365.93 141.242 368.136 128.992 366.151 129.186C364.165 129.378 360.954 145.426 360.954 145.426C356.275 141.912 353 144.161 353 144.161L363.24 153.429C363.24 153.429 366.559 153.335 367.657 153.511Z" fill="#FFC6B2"/>
<path fill-rule="evenodd" clip-rule="evenodd" d="M309.517 208.035C313.819 207.406 326.937 215.368 323.599 231.538C323.32 232.895 321.427 235.884 320.955 237.12C320.36 238.685 325 244.415 325 244.415L313.021 248C312.51 244.611 313.369 239.657 309.498 238.185C308.05 237.634 306.5 237.285 305.134 236.587C301.445 234.7 299.476 230.573 297.961 227.194C296.83 224.669 295.969 221.954 296.001 219.214C296.08 212.315 302.603 209.046 309.517 208.035Z" fill="#FFC6B2"/>
<path fill-rule="evenodd" clip-rule="evenodd" d="M334 251.986C334 246.206 331.998 244 325.372 244C318.746 244 310 246.206 310 251.986C310 257.766 314.679 265 321.307 265C327.932 265 334 257.766 334 251.986Z" fill="#FFC6B2"/>
<path fill-rule="evenodd" clip-rule="evenodd" d="M328 241.785C328 241.785 347.999 222.266 351.999 203.145C356.001 184.025 362.799 153 362.799 153L370.399 154.973C370.399 154.973 374.001 197.374 370.399 203.867C366.8 210.362 346.398 255.457 346.799 267L328 241.785Z" fill="#FFC6B2"/>
<path fill-rule="evenodd" clip-rule="evenodd" d="M291.761 251C291.761 251 284.943 252.082 274.514 274.452C264.086 296.821 232 338.466 232 338.466L237.215 343C237.215 343 268.498 320.993 274.514 307.645C280.529 294.296 288.15 277.7 291.761 278.42C295.369 279.143 310.611 259.297 291.761 251Z" fill="#FFC6B2"/>
<path fill-rule="evenodd" clip-rule="evenodd" d="M346.45 270L356 245.567C356 245.567 354.527 234.108 335.678 230L325 244.26L346.45 270Z" fill="#FF7B5B"/>
<path fill-rule="evenodd" clip-rule="evenodd" d="M295.09 249C295.09 249 283.994 249.886 275 268.616C275 268.616 284.891 281.563 292.127 282C292.127 282 319.002 260.22 295.09 249Z" fill="#FF7B5B"/>
<path fill-rule="evenodd" clip-rule="evenodd" d="M326 468.928C326 468.928 310.063 500.05 308.2 494.288C306.34 488.524 306.954 474.682 307.953 472.706C308.955 470.729 315.47 462 315.47 462L326 468.928Z" fill="#FFC6B2"/>
<path fill-rule="evenodd" clip-rule="evenodd" d="M326.85 322.252L341.551 317C341.551 317 385.18 389.026 384.999 409.009C384.819 428.99 325.077 469 325.077 469L315 461.246C315 461.246 343.317 422.346 353.176 412.251C358.107 407.203 322.809 382.462 317.463 358.657C312.117 334.852 326.85 322.252 326.85 322.252Z" fill="#654287"/>
<path fill-rule="evenodd" clip-rule="evenodd" d="M239 452.271C239 452.271 208.781 472.724 210.038 466.984C211.299 461.239 218.907 449.513 220.814 448.209C222.725 446.907 233.042 442 233.042 442L239 452.271Z" fill="#FFC6B2"/>
<path fill-rule="evenodd" clip-rule="evenodd" d="M287.364 348.479L330.893 325C330.893 325 332.621 406.559 322.171 424.193C311.722 441.828 237.972 453 237.972 453L233 442.035C233 442.035 278.5 416.804 292.47 411.866C306.44 406.926 287.364 348.479 287.364 348.479Z" fill="#775298"/>
<path fill-rule="evenodd" clip-rule="evenodd" d="M312.726 309C312.726 309 280.646 319.569 286.779 348.567C292.911 377.564 303.132 383 303.132 383L321.529 354.91L340 318.125L321.529 315.945L312.726 309Z" fill="#775298"/>
<path fill-rule="evenodd" clip-rule="evenodd" d="M328.502 241C328.502 241 352 253.377 352 281.346C352 281.346 349.015 313.231 344.177 320.198C344.177 320.198 336.313 322.003 326.507 320.198C316.226 318.306 306.277 311.514 306.277 311.514L298.247 272.477L292 249.683L295.387 248.633L313.059 246.809C313.059 246.809 310.52 271.621 330.253 259.3C334.409 256.704 325.079 243.766 325.079 243.766L328.502 241Z" fill="#FF7B5B"/>
<path fill-rule="evenodd" clip-rule="evenodd" d="M343 136.105L392.28 163L420 114.013L373.8 90L343 136.105Z" fill="white"/>
<path fill-rule="evenodd" clip-rule="evenodd" d="M410.948 371L446 350.577L417.041 303L385 322.556L410.948 371Z" fill="white"/>
<path fill-rule="evenodd" clip-rule="evenodd" d="M238.01 168.005C238.102 167.926 239.184 168.857 240.895 170.756C242.599 172.658 244.923 175.55 247.256 179.452C249.598 183.337 251.915 188.268 253.57 193.991C255.283 199.671 256.431 206.056 259.063 212.207C260.43 215.245 262.086 218.074 264.058 220.575C266.047 223.059 268.252 225.239 270.523 227.141C275.163 230.843 280.025 233.389 284.357 234.86C288.684 236.352 292.391 237.021 294.969 237.261C297.543 237.531 298.999 237.571 299 237.731C299.007 237.831 297.556 238.041 294.912 237.993C292.27 237.974 288.424 237.495 283.894 236.119C279.361 234.761 274.239 232.249 269.342 228.467C266.939 226.522 264.605 224.271 262.502 221.684C260.416 219.082 258.654 216.106 257.224 212.921C254.481 206.492 253.398 200.051 251.803 194.446C250.279 188.822 248.162 183.982 246.021 180.088C243.894 176.183 241.782 173.223 240.285 171.205C238.779 169.191 237.897 168.099 238.01 168.005Z" fill="#22343D"/>
<path fill-rule="evenodd" clip-rule="evenodd" d="M298.101 136C298.463 135.949 298.814 140.497 301.521 147.224C302.873 150.574 304.884 154.43 307.773 158.294C309.217 160.23 310.878 162.136 312.758 164.036C314.626 165.943 316.66 167.881 318.582 170.055C322.437 174.442 325.089 179.184 327.586 183.369C330.066 187.595 332.041 191.615 333.045 195.211C334.092 198.797 334.153 201.883 333.821 203.93C333.474 205.986 332.93 207.028 332.84 206.999C332.667 206.957 332.949 205.857 333.047 203.864C333.133 201.875 332.863 198.975 331.692 195.587C330.561 192.184 328.525 188.349 325.985 184.213C323.405 180.078 320.729 175.432 317.047 171.251C315.199 169.159 313.194 167.228 311.315 165.273C309.426 163.327 307.708 161.3 306.258 159.272C303.351 155.212 301.409 151.166 300.194 147.668C298.95 144.172 298.421 141.221 298.17 139.187C297.921 137.15 297.988 136.01 298.101 136Z" fill="#22343D"/>
<path fill-rule="evenodd" clip-rule="evenodd" d="M313.159 225.908C313.14 225.776 313.978 225.655 314.77 224.814C314.952 224.62 315.136 224.336 315.133 224.171C315.128 223.994 314.991 223.686 314.756 223.509C314.511 223.31 314.24 223.214 313.881 223.247C313.51 223.272 313.059 223.438 312.47 223.518C311.179 223.674 310.172 223.013 309.509 222.479C308.829 221.916 308.309 221.345 307.922 220.834C307.15 219.804 306.91 219.06 307.029 219.005C307.165 218.939 307.63 219.555 308.501 220.419C308.935 220.848 309.483 221.34 310.131 221.814C310.769 222.275 311.549 222.694 312.329 222.583C312.742 222.535 313.223 222.36 313.81 222.324C314.407 222.271 315.07 222.52 315.435 222.891C315.822 223.271 316.04 223.718 315.994 224.247C315.879 224.789 315.561 225.042 315.298 225.278C314.164 226.178 313.123 226.031 313.159 225.908Z" fill="#FF7B5B"/>
<path fill-rule="evenodd" clip-rule="evenodd" d="M319 226L310 228.993C310 228.993 317.636 235.104 319 226Z" fill="white"/>
<path fill-rule="evenodd" clip-rule="evenodd" d="M308.885 225.575C309.253 226.227 308.708 227.17 307.667 227.68C306.625 228.191 305.483 228.078 305.115 227.425C304.747 226.774 305.292 225.831 306.333 225.32C307.375 224.809 308.517 224.922 308.885 225.575Z" fill="#FFB2A0"/>
<path fill-rule="evenodd" clip-rule="evenodd" d="M319.927 220.714C320.222 221.42 319.598 222.343 318.535 222.777C317.47 223.212 316.369 222.992 316.073 222.285C315.778 221.579 316.402 220.657 317.466 220.223C318.53 219.789 319.631 220.008 319.927 220.714Z" fill="#FFB2A0"/>
<path fill-rule="evenodd" clip-rule="evenodd" d="M310 238.305C310 238.305 313.077 238.846 317 238C317 238 315.066 239.623 311.907 240C311.907 240 311.199 238.869 310 238.305Z" fill="#FFA192"/>
<path fill-rule="evenodd" clip-rule="evenodd" d="M313.647 218.237C314.068 218.595 314.12 219.226 313.763 219.647C313.405 220.068 312.776 220.12 312.353 219.763C311.932 219.407 311.88 218.776 312.237 218.353C312.595 217.932 313.226 217.88 313.647 218.237Z" fill="#22343D"/>
<path fill-rule="evenodd" clip-rule="evenodd" d="M306.647 222.237C307.068 222.595 307.12 223.226 306.763 223.647C306.407 224.068 305.776 224.12 305.353 223.763C304.932 223.405 304.88 222.776 305.237 222.353C305.595 221.932 306.226 221.88 306.647 222.237Z" fill="#22343D"/>
<path fill-rule="evenodd" clip-rule="evenodd" d="M313.991 215.344C313.896 215.514 313.008 215.507 312.031 215.672C311.046 215.82 310.299 216.087 310.057 215.972C309.807 215.875 310.386 215.281 311.722 215.07C313.055 214.856 314.11 215.187 313.991 215.344Z" fill="#22343D"/>
<path fill-rule="evenodd" clip-rule="evenodd" d="M302.063 220.973C301.849 220.818 302.184 219.931 302.999 219.043C303.822 218.136 304.876 217.833 304.986 218.086C305.104 218.333 304.462 218.908 303.74 219.705C303.007 220.5 302.294 221.142 302.063 220.973Z" fill="#22343D"/>
<path fill-rule="evenodd" clip-rule="evenodd" d="M298.854 228.078C298.854 228.078 295.699 225.805 294.184 227.861C292.67 229.917 301 231 301 231L298.854 228.078Z" fill="#FFC6B2"/>
<path fill-rule="evenodd" clip-rule="evenodd" d="M226 446C226 446 221.599 447.753 220.451 448.805C219.303 449.857 208.778 466.509 210.118 468.612C211.458 470.716 222.012 463.575 222.012 463.575C222.012 463.575 213.18 465.107 226 446Z" fill="#775298"/>
<path fill-rule="evenodd" clip-rule="evenodd" d="M310.225 468C310.225 468 307.066 471.146 306.578 472.591C306.091 474.034 305.218 493.577 307.497 494.889C309.774 496.203 316 485.419 316 485.419C316 485.419 308.557 490.791 310.225 468.045" fill="#775298"/>
</svg>
