<svg width="43" height="16" viewBox="0 0 43 16" fill="none" xmlns="http://www.w3.org/2000/svg">
<mask id="path-1-inside-1_14700_1586" fill="white">
<path d="M-1.04102e-05 15.4L0.000407157 2.3365e-05H10.0104L10.0103 3.11302H3.11332L3.11324 6.07202H9.25124L9.25116 9.18502H3.11316L3.11307 12.287H10.0101L10.01 15.4H-1.04102e-05ZM1.25402 14.146H8.95402L8.95404 13.464H1.92504L1.92519 7.96402H8.18419L8.18421 7.28202H1.92521L1.92536 1.85902H8.95436L8.95437 1.18802H1.25438L1.25402 14.146ZM14.7359 14.234H15.4179L15.4182 1.94702H17.9592L21.9629 14.19H25.7029L25.7032 1.18802H25.0322L25.0319 13.486H22.4909L18.4872 1.23202H14.7362L14.7359 14.234ZM13.5369 15.4L13.5373 2.3365e-05H19.5103L23.3159 12.243H23.7889L23.7893 2.3365e-05H26.9023L26.9019 15.4H20.9289L17.1012 3.12402H16.6502L16.6499 15.4H13.5369ZM33.1261 15.4L30.8602 13.134L30.8605 2.26602L33.1266 2.3365e-05H40.1226L42.3885 2.26602L42.3884 5.03802H39.2864L39.2865 3.78402L38.6155 3.11302H34.6225L33.9625 3.80602L33.9622 11.627L34.6222 12.287H38.6152L39.2862 11.616L39.2863 10.098H36.2393L36.2394 6.99602H42.3884L42.3882 13.134L40.1221 15.4H33.1261ZM33.7642 14.146H39.5062L41.1782 12.474L41.1783 8.23902H37.4603L37.4603 8.91002H40.4963L40.4962 12.188L39.1982 13.464H34.0612L32.7632 12.188L32.7635 3.14602L34.0615 1.85902H39.1985L40.4965 3.14602L40.4965 3.89402H41.1785L41.1785 2.84902L39.5065 1.18802H33.7645L32.0925 2.84902L32.0922 12.474L33.7642 14.146Z"/>
</mask>
<path d="M-1.04102e-05 15.4L0.000407157 2.3365e-05H10.0104L10.0103 3.11302H3.11332L3.11324 6.07202H9.25124L9.25116 9.18502H3.11316L3.11307 12.287H10.0101L10.01 15.4H-1.04102e-05ZM1.25402 14.146H8.95402L8.95404 13.464H1.92504L1.92519 7.96402H8.18419L8.18421 7.28202H1.92521L1.92536 1.85902H8.95436L8.95437 1.18802H1.25438L1.25402 14.146ZM14.7359 14.234H15.4179L15.4182 1.94702H17.9592L21.9629 14.19H25.7029L25.7032 1.18802H25.0322L25.0319 13.486H22.4909L18.4872 1.23202H14.7362L14.7359 14.234ZM13.5369 15.4L13.5373 2.3365e-05H19.5103L23.3159 12.243H23.7889L23.7893 2.3365e-05H26.9023L26.9019 15.4H20.9289L17.1012 3.12402H16.6502L16.6499 15.4H13.5369ZM33.1261 15.4L30.8602 13.134L30.8605 2.26602L33.1266 2.3365e-05H40.1226L42.3885 2.26602L42.3884 5.03802H39.2864L39.2865 3.78402L38.6155 3.11302H34.6225L33.9625 3.80602L33.9622 11.627L34.6222 12.287H38.6152L39.2862 11.616L39.2863 10.098H36.2393L36.2394 6.99602H42.3884L42.3882 13.134L40.1221 15.4H33.1261ZM33.7642 14.146H39.5062L41.1782 12.474L41.1783 8.23902H37.4603L37.4603 8.91002H40.4963L40.4962 12.188L39.1982 13.464H34.0612L32.7632 12.188L32.7635 3.14602L34.0615 1.85902H39.1985L40.4965 3.14602L40.4965 3.89402H41.1785L41.1785 2.84902L39.5065 1.18802H33.7645L32.0925 2.84902L32.0922 12.474L33.7642 14.146Z" fill="white"/>
<path d="M-1.03282e-05 15.4H-1.00001L-1.00004 16.4H-3.7443e-05L-1.03282e-05 15.4ZM0.000407239 2.3365e-05L0.000434354 -0.999977H-0.999566L-0.999593 2.3365e-05H0.000407239ZM10.0104 2.3365e-05H11.0104L11.0104 -0.999977H10.0104L10.0104 2.3365e-05ZM10.0103 3.11302L10.0103 4.11302H11.0103L11.0103 3.11302H10.0103ZM3.11332 3.11302L3.11335 2.11302H2.11335L2.11332 3.11302H3.11332ZM3.11324 6.07202H2.11324L2.11322 7.07202H3.11322L3.11324 6.07202ZM9.25124 6.07202H10.2512L10.2513 5.07202H9.25127L9.25124 6.07202ZM9.25116 9.18502L9.25113 10.185H10.2511L10.2512 9.18502H9.25116ZM3.11316 9.18502L3.11319 8.18502H2.11319L2.11316 9.18502H3.11316ZM3.11307 12.287H2.11307L2.11305 13.287H3.11305L3.11307 12.287ZM10.0101 12.287H11.0101L11.0101 11.287H10.0101L10.0101 12.287ZM10.01 15.4L10.01 16.4H11.01L11.01 15.4H10.01ZM1.25402 14.146H0.254024L0.253996 15.146H1.254L1.25402 14.146ZM8.95402 14.146L8.954 15.146H9.954L9.95402 14.146H8.95402ZM8.95404 13.464H9.95404L9.95407 12.464H8.95407L8.95404 13.464ZM1.92504 13.464H0.925042L0.925015 14.464H1.92501L1.92504 13.464ZM1.92519 7.96402L1.92522 6.96402H0.925218L0.925191 7.96402H1.92519ZM8.18419 7.96402L8.18416 8.96402H9.18416L9.18419 7.96402H8.18419ZM8.18421 7.28202H9.18421L9.18424 6.28202H8.18424L8.18421 7.28202ZM1.92521 7.28202H0.92521L0.925183 8.28202H1.92518L1.92521 7.28202ZM1.92536 1.85902L1.92538 0.859024H0.925384L0.925357 1.85902H1.92536ZM8.95436 1.85902L8.95433 2.85902H9.95433L9.95436 1.85902H8.95436ZM8.95437 1.18802H9.95437L9.9544 0.188024H8.9544L8.95437 1.18802ZM1.25437 1.18802L1.2544 0.188024H0.254402L0.254375 1.18802H1.25437ZM0.999989 15.4L1.00041 2.3365e-05H-0.999593L-1.00001 15.4H0.999989ZM0.000380124 1.00002H10.0104L10.0104 -0.999977H0.000434354L0.000380124 1.00002ZM9.01041 2.3365e-05L9.01032 3.11302H11.0103L11.0104 2.3365e-05H9.01041ZM10.0104 2.11302H3.11335L3.1133 4.11302H10.0103L10.0104 2.11302ZM2.11332 3.11302L2.11324 6.07202H4.11324L4.11332 3.11302H2.11332ZM3.11322 7.07202H9.25122L9.25127 5.07202H3.11327L3.11322 7.07202ZM8.25124 6.07202L8.25116 9.18502H10.2512L10.2512 6.07202H8.25124ZM9.25119 8.18502H3.11319L3.11313 10.185H9.25113L9.25119 8.18502ZM2.11316 9.18502L2.11307 12.287H4.11307L4.11316 9.18502H2.11316ZM3.11305 13.287H10.01L10.0101 11.287H3.1131L3.11305 13.287ZM9.01007 12.287L9.00999 15.4H11.01L11.0101 12.287H9.01007ZM10.01 14.4H1.67865e-05L-3.7443e-05 16.4H10.01L10.01 14.4ZM1.254 15.146H8.954L8.95405 13.146H1.25405L1.254 15.146ZM9.95402 14.146L9.95404 13.464H7.95404L7.95402 14.146H9.95402ZM8.95407 12.464H1.92507L1.92501 14.464H8.95401L8.95407 12.464ZM2.92504 13.464L2.92519 7.96402H0.925191L0.925042 13.464H2.92504ZM1.92516 8.96402H8.18416L8.18422 6.96402H1.92522L1.92516 8.96402ZM9.18419 7.96402L9.18421 7.28202H7.18421L7.18419 7.96402H9.18419ZM8.18424 6.28202H1.92524L1.92518 8.28202H8.18418L8.18424 6.28202ZM2.92521 7.28202L2.92536 1.85902H0.925357L0.92521 7.28202H2.92521ZM1.92533 2.85902H8.95433L8.95438 0.859024H1.92538L1.92533 2.85902ZM9.95436 1.85902L9.95437 1.18802H7.95437L7.95436 1.85902H9.95436ZM8.9544 0.188024H1.2544L1.25435 2.18802H8.95435L8.9544 0.188024ZM0.254375 1.18802L0.254024 14.146H2.25402L2.25437 1.18802H0.254375ZM14.7359 14.234H13.7359L13.7359 15.234H14.7359L14.7359 14.234ZM15.4179 14.234L15.4179 15.234H16.4179L16.4179 14.234H15.4179ZM15.4182 1.94702L15.4183 0.947024H14.4183L14.4182 1.94702H15.4182ZM17.9592 1.94702L18.9097 1.63618L18.6843 0.947024H17.9593L17.9592 1.94702ZM21.9629 14.19L21.0124 14.5009L21.2378 15.19H21.9629L21.9629 14.19ZM25.7029 14.19L25.7029 15.19H26.7029L26.7029 14.19H25.7029ZM25.7032 1.18802H26.7032L26.7033 0.188024H25.7033L25.7032 1.18802ZM25.0322 1.18802L25.0323 0.188024H24.0323L24.0322 1.18802H25.0322ZM25.0319 13.486L25.0319 14.486H26.0319L26.0319 13.486H25.0319ZM22.4909 13.486L21.5404 13.7966L21.7656 14.486H22.4909L22.4909 13.486ZM18.4872 1.23202L19.4378 0.921433L19.2126 0.232023H18.4873L18.4872 1.23202ZM14.7362 1.23202L14.7363 0.232023H13.7363L13.7362 1.23202H14.7362ZM13.5369 15.4H12.5369L12.5368 16.4H13.5368L13.5369 15.4ZM13.5373 2.3365e-05L13.5373 -0.999977H12.5373L12.5373 2.3365e-05H13.5373ZM19.5103 2.3365e-05L20.4652 -0.296835L20.2466 -0.999977H19.5103L19.5103 2.3365e-05ZM23.3159 12.243L22.361 12.5399L22.5796 13.243H23.3159L23.3159 12.243ZM23.7889 12.243L23.7889 13.243H24.7889L24.7889 12.243H23.7889ZM23.7893 2.3365e-05L23.7893 -0.999977H22.7893L22.7893 2.3365e-05H23.7893ZM26.9023 2.3365e-05H27.9023L27.9023 -0.999977H26.9023L26.9023 2.3365e-05ZM26.9019 15.4L26.9018 16.4H27.9018L27.9019 15.4H26.9019ZM20.9289 15.4L19.9742 15.6977L20.1932 16.4H20.9288L20.9289 15.4ZM17.1012 3.12402L18.0559 2.82633L17.8369 2.12402H17.1012L17.1012 3.12402ZM16.6502 3.12402L16.6502 2.12402H15.6502L15.6502 3.12402H16.6502ZM16.6499 15.4L16.6498 16.4H17.6498L17.6499 15.4H16.6499ZM14.7359 15.234H15.4179L15.4179 13.234H14.7359L14.7359 15.234ZM16.4179 14.234L16.4182 1.94702H14.4182L14.4179 14.234H16.4179ZM15.4182 2.94702H17.9592L17.9593 0.947024H15.4183L15.4182 2.94702ZM17.0088 2.25787L21.0124 14.5009L22.9134 13.8792L18.9097 1.63618L17.0088 2.25787ZM21.9629 15.19H25.7029L25.7029 13.19H21.9629L21.9629 15.19ZM26.7029 14.19L26.7032 1.18802H24.7032L24.7029 14.19H26.7029ZM25.7033 0.188024H25.0323L25.0322 2.18802H25.7032L25.7033 0.188024ZM24.0322 1.18802L24.0319 13.486H26.0319L26.0322 1.18802H24.0322ZM25.0319 12.486H22.4909L22.4909 14.486H25.0319L25.0319 12.486ZM23.4415 13.1754L19.4378 0.921433L17.5367 1.54261L21.5404 13.7966L23.4415 13.1754ZM18.4873 0.232023H14.7363L14.7362 2.23202H18.4872L18.4873 0.232023ZM13.7362 1.23202L13.7359 14.234H15.7359L15.7362 1.23202H13.7362ZM14.5369 15.4L14.5373 2.3365e-05H12.5373L12.5369 15.4H14.5369ZM13.5373 1.00002H19.5103L19.5103 -0.999977H13.5373L13.5373 1.00002ZM18.5554 0.296881L22.361 12.5399L24.2709 11.9462L20.4652 -0.296835L18.5554 0.296881ZM23.3159 13.243H23.7889L23.789 11.243H23.316L23.3159 13.243ZM24.7889 12.243L24.7893 2.3365e-05H22.7893L22.7889 12.243H24.7889ZM23.7893 1.00002H26.9023L26.9023 -0.999977H23.7893L23.7893 1.00002ZM25.9023 2.3365e-05L25.9019 15.4H27.9019L27.9023 2.3365e-05H25.9023ZM26.9019 14.4H20.9289L20.9288 16.4H26.9018L26.9019 14.4ZM21.8835 15.1023L18.0559 2.82633L16.1465 3.42171L19.9742 15.6977L21.8835 15.1023ZM17.1012 2.12402H16.6502L16.6502 4.12402H17.1012L17.1012 2.12402ZM15.6502 3.12402L15.6499 15.4H17.6499L17.6502 3.12402H15.6502ZM16.6499 14.4H13.5369L13.5368 16.4H16.6498L16.6499 14.4ZM33.1261 15.4L32.419 16.1071L32.7119 16.4H33.1261L33.1261 15.4ZM30.8602 13.134H29.8602L29.8602 13.5482L30.1531 13.8411L30.8602 13.134ZM30.8605 2.26602L30.1534 1.55892L29.8605 1.85181L29.8605 2.26602H30.8605ZM33.1266 2.3365e-05L33.1266 -0.999977H32.7124L32.4195 -0.707083L33.1266 2.3365e-05ZM40.1226 2.3365e-05L40.8297 -0.707083L40.5368 -0.999977H40.1226L40.1226 2.3365e-05ZM42.3885 2.26602H43.3885L43.3885 1.85181L43.0956 1.55892L42.3885 2.26602ZM42.3884 5.03802L42.3884 6.03802H43.3884L43.3884 5.03802H42.3884ZM39.2864 5.03802H38.2864L38.2864 6.03802H39.2864L39.2864 5.03802ZM39.2865 3.78402H40.2865L40.2865 3.36981L39.9936 3.07692L39.2865 3.78402ZM38.6155 3.11302L39.3226 2.40592L39.0297 2.11302H38.6155L38.6155 3.11302ZM34.6225 3.11302L34.6225 2.11302H34.1939L33.8984 2.42337L34.6225 3.11302ZM33.9625 3.80602L33.2383 3.11637L32.9625 3.40602L32.9625 3.80602H33.9625ZM33.9622 11.627H32.9622L32.9622 12.0412L33.2551 12.3341L33.9622 11.627ZM34.6222 12.287L33.9151 12.9941L34.208 13.287H34.6222L34.6222 12.287ZM38.6152 12.287L38.6152 13.287H39.0294L39.3223 12.9941L38.6152 12.287ZM39.2862 11.616L39.9933 12.3231L40.2862 12.0302L40.2862 11.616H39.2862ZM39.2863 10.098H40.2863L40.2863 9.09802H39.2863L39.2863 10.098ZM36.2393 10.098H35.2393L35.2393 11.098H36.2393L36.2393 10.098ZM36.2394 6.99602L36.2394 5.99602H35.2394L35.2394 6.99602H36.2394ZM42.3884 6.99602H43.3884L43.3884 5.99602H42.3884L42.3884 6.99602ZM42.3882 13.134L43.0953 13.8411L43.3882 13.5482L43.3882 13.134H42.3882ZM40.1221 15.4L40.1221 16.4H40.5363L40.8292 16.1071L40.1221 15.4ZM33.7642 14.146L33.0571 14.8531L33.3499 15.146H33.7642L33.7642 14.146ZM39.5062 14.146L39.5062 15.146H39.9204L40.2133 14.8531L39.5062 14.146ZM41.1782 12.474L41.8853 13.1811L42.1782 12.8882L42.1782 12.474H41.1782ZM41.1783 8.23902H42.1783L42.1784 7.23902H41.1784L41.1783 8.23902ZM37.4603 8.23902L37.4604 7.23902H36.4604L36.4603 8.23902H37.4603ZM37.4603 8.91002H36.4603L36.4603 9.91002H37.4603L37.4603 8.91002ZM40.4963 8.91002H41.4963L41.4963 7.91002H40.4963L40.4963 8.91002ZM40.4962 12.188L41.1973 12.9011L41.4962 12.6073L41.4962 12.188H40.4962ZM39.1982 13.464L39.1982 14.464H39.6074L39.8992 14.1771L39.1982 13.464ZM34.0612 13.464L33.3601 14.1771L33.652 14.464H34.0612L34.0612 13.464ZM32.7632 12.188H31.7632L31.7632 12.6073L32.0622 12.9011L32.7632 12.188ZM32.7635 3.14602L32.0594 2.43591L31.7635 2.72931L31.7635 3.14602H32.7635ZM34.0615 1.85902L34.0615 0.859024H33.6498L33.3574 1.14891L34.0615 1.85902ZM39.1985 1.85902L39.9026 1.14891L39.6103 0.859024H39.1985L39.1985 1.85902ZM40.4965 3.14602H41.4965L41.4965 2.72931L41.2006 2.43591L40.4965 3.14602ZM40.4965 3.89402H39.4965L39.4964 4.89402H40.4964L40.4965 3.89402ZM41.1785 3.89402L41.1784 4.89402H42.1784L42.1785 3.89402H41.1785ZM41.1785 2.84902H42.1785L42.1785 2.43288L41.8833 2.13959L41.1785 2.84902ZM39.5065 1.18802L40.2113 0.478587L39.9188 0.188024H39.5066L39.5065 1.18802ZM33.7645 1.18802L33.7646 0.188024H33.3523L33.0598 0.478587L33.7645 1.18802ZM32.0925 2.84902L31.3877 2.13959L31.0925 2.43288L31.0925 2.84902H32.0925ZM32.0922 12.474H31.0922L31.0922 12.8882L31.3851 13.1811L32.0922 12.474ZM33.8333 14.6929L31.5673 12.4269L30.1531 13.8411L32.419 16.1071L33.8333 14.6929ZM31.8602 13.134L31.8605 2.26602H29.8605L29.8602 13.134H31.8602ZM31.5676 2.97313L33.8336 0.70713L32.4195 -0.707083L30.1534 1.55892L31.5676 2.97313ZM33.1265 1.00002H40.1225L40.1226 -0.999977H33.1266L33.1265 1.00002ZM39.4154 0.70713L41.6814 2.97313L43.0956 1.55892L40.8297 -0.707083L39.4154 0.70713ZM41.3885 2.26602L41.3884 5.03802H43.3884L43.3885 2.26602H41.3885ZM42.3885 4.03802H39.2865L39.2864 6.03802H42.3884L42.3885 4.03802ZM40.2864 5.03802L40.2865 3.78402H38.2865L38.2864 5.03802H40.2864ZM39.9936 3.07692L39.3226 2.40592L37.9084 3.82013L38.5793 4.49113L39.9936 3.07692ZM38.6155 2.11302H34.6225L34.6225 4.11302H38.6155L38.6155 2.11302ZM33.8984 2.42337L33.2383 3.11637L34.6866 4.49568L35.3466 3.80268L33.8984 2.42337ZM32.9625 3.80602L32.9622 11.627H34.9622L34.9625 3.80602H32.9625ZM33.2551 12.3341L33.9151 12.9941L35.3294 11.5799L34.6694 10.9199L33.2551 12.3341ZM34.6222 13.287H38.6152L38.6153 11.287H34.6223L34.6222 13.287ZM39.3223 12.9941L39.9933 12.3231L38.5792 10.9089L37.9081 11.5799L39.3223 12.9941ZM40.2862 11.616L40.2863 10.098H38.2863L38.2862 11.616H40.2862ZM39.2863 9.09802H36.2393L36.2393 11.098H39.2863L39.2863 9.09802ZM37.2393 10.098L37.2394 6.99602H35.2394L35.2393 10.098H37.2393ZM36.2393 7.99602H42.3883L42.3884 5.99602H36.2394L36.2393 7.99602ZM41.3884 6.99602L41.3882 13.134H43.3882L43.3884 6.99602H41.3884ZM41.6811 12.4269L39.4151 14.6929L40.8292 16.1071L43.0953 13.8411L41.6811 12.4269ZM40.1222 14.4H33.1262L33.1261 16.4H40.1221L40.1222 14.4ZM33.7642 15.146H39.5062L39.5062 13.146H33.7642L33.7642 15.146ZM40.2133 14.8531L41.8853 13.1811L40.4711 11.7669L38.7991 13.4389L40.2133 14.8531ZM42.1782 12.474L42.1783 8.23902H40.1783L40.1782 12.474H42.1782ZM41.1784 7.23902H37.4604L37.4603 9.23902H41.1783L41.1784 7.23902ZM36.4603 8.23902L36.4603 8.91002H38.4603L38.4603 8.23902H36.4603ZM37.4603 9.91002H40.4963L40.4963 7.91002H37.4603L37.4603 9.91002ZM39.4963 8.91002L39.4962 12.188H41.4962L41.4963 8.91002H39.4963ZM39.7952 11.4749L38.4972 12.7509L39.8992 14.1771L41.1973 12.9011L39.7952 11.4749ZM39.1982 12.464H34.0612L34.0612 14.464H39.1982L39.1982 12.464ZM34.7623 12.7509L33.4643 11.4749L32.0622 12.9011L33.3601 14.1771L34.7623 12.7509ZM33.7632 12.188L33.7635 3.14602H31.7635L31.7632 12.188H33.7632ZM33.4676 3.85613L34.7656 2.56913L33.3574 1.14891L32.0594 2.43591L33.4676 3.85613ZM34.0615 2.85902H39.1985L39.1985 0.859024H34.0615L34.0615 2.85902ZM38.4944 2.56913L39.7924 3.85613L41.2006 2.43591L39.9026 1.14891L38.4944 2.56913ZM39.4965 3.14602L39.4965 3.89402H41.4965L41.4965 3.14602H39.4965ZM40.4964 4.89402H41.1784L41.1785 2.89402H40.4965L40.4964 4.89402ZM42.1785 3.89402L42.1785 2.84902H40.1785L40.1785 3.89402H42.1785ZM41.8833 2.13959L40.2113 0.478587L38.8017 1.89746L40.4737 3.55846L41.8833 2.13959ZM39.5066 0.188024H33.7646L33.7645 2.18802H39.5065L39.5066 0.188024ZM33.0598 0.478587L31.3877 2.13959L32.7972 3.55846L34.4693 1.89746L33.0598 0.478587ZM31.0925 2.84902L31.0922 12.474H33.0922L33.0925 2.84902H31.0925ZM31.3851 13.1811L33.0571 14.8531L34.4713 13.4389L32.7993 11.7669L31.3851 13.1811Z" fill="black" mask="url(#path-1-inside-1_14700_1586)"/>
</svg>
